HIERARCHY
ROOT Hips
{
	OFFSET -0.001795 -0.223333 0.028219
	CHANNELS 6 Xposition Yposition Zposition Zrotation Yrotation Xrotation 
	JOINT LeftUpLeg
	{
		OFFSET 0.069520 -0.091406 -0.006815
		CHANNELS 3 Zrotation Yrotation Xrotation
		JOINT LeftLeg
		{
			OFFSET 0.034277 -0.375199 -0.004496
			CHANNELS 3 Zrotation Yrotation Xrotation
			JOINT LeftFoot
			{
				OFFSET -0.013596 -0.397961 -0.043693
				CHANNELS 3 Zrotation Yrotation Xrotation
				JOINT LeftToe
				{
					OFFSET 0.026358 -0.055791 0.119288
					CHANNELS 3 Zrotation Yrotation Xrotation
					End Site
					{
						OFFSET 0.000000 0.000000 0.000000
					}
				}
			}
		}
	}
	JOINT RightUpLeg
	{
		OFFSET -0.067670 -0.090522 -0.004320
		CHANNELS 3 Zrotation Yrotation Xrotation
		JOINT RightLeg
		{
			OFFSET -0.038290 -0.382569 -0.008850
			CHANNELS 3 Zrotation Yrotation Xrotation
			JOINT RightFoot
			{
				OFFSET 0.015774 -0.398415 -0.042312
				CHANNELS 3 Zrotation Yrotation Xrotation
				JOINT RightToe
				{
					OFFSET -0.025372 -0.048144 0.123348
					CHANNELS 3 Zrotation Yrotation Xrotation
					End Site
					{
						OFFSET 0.000000 0.000000 0.000000
					}
				}
			}
		}
	}
	JOINT Spine
	{
		OFFSET -0.002533 0.108963 -0.026696
		CHANNELS 3 Zrotation Yrotation Xrotation
		JOINT Spine1
		{
			OFFSET 0.005487 0.135180 0.001092
			CHANNELS 3 Zrotation Yrotation Xrotation
			JOINT Spine2
			{
				OFFSET 0.001457 0.052922 0.025425
				CHANNELS 3 Zrotation Yrotation Xrotation
				JOINT Neck
				{
					OFFSET -0.002778 0.213870 -0.042857
					CHANNELS 3 Zrotation Yrotation Xrotation
					JOINT Head
					{
						OFFSET 0.005152 0.064970 0.051349
						CHANNELS 3 Zrotation Yrotation Xrotation
						End Site
						{
							OFFSET 0.000000 0.000000 0.000000
						}
					}
				}
				JOINT LeftShoulder
				{
					OFFSET 0.078845 0.121749 -0.034090
					CHANNELS 3 Zrotation Yrotation Xrotation
					JOINT LeftArm
					{
						OFFSET 0.090977 0.030469 -0.008868
						CHANNELS 3 Zrotation Yrotation Xrotation
						JOINT LeftForeArm
						{
							OFFSET 0.259612 -0.012772 -0.027456
							CHANNELS 3 Zrotation Yrotation Xrotation
							JOINT LeftHand
							{
								OFFSET 0.249234 0.008986 -0.001171
								CHANNELS 3 Zrotation Yrotation Xrotation
								End Site
								{
									OFFSET 0.000000 0.000000 0.000000
								}
							}
						}
					}
				}
				JOINT RightShoulder
				{
					OFFSET -0.081759 0.118833 -0.038615
					CHANNELS 3 Zrotation Yrotation Xrotation
					JOINT RightArm
					{
						OFFSET -0.096012 0.032551 -0.009143
						CHANNELS 3 Zrotation Yrotation Xrotation
						JOINT RightForeArm
						{
							OFFSET -0.253742 -0.013329 -0.021401
							CHANNELS 3 Zrotation Yrotation Xrotation
							JOINT RightHand
							{
								OFFSET -0.255298 0.007772 -0.005559
								CHANNELS 3 Zrotation Yrotation Xrotation
								End Site
								{
									OFFSET 0.000000 0.000000 0.000000
								}
							}
						}
					}
				}
			}
		}
	}
}
MOTION
Frames: 9
Frame Time: 0.050000
0.000000 0.964423 0.000000 -0.210659 -2.955186 1.237377 0.820620 0.321401 3.771783 -1.678214 0.270193 -3.967511 1.838396 7.216735 11.597797 0.000000 0.000000 0.000000 -2.115936 -0.003500 0.905775 1.841226 -0.193707 -0.477339 -1.194904 -6.640286 8.875497 0.000000 0.000000 0.000000 6.805554 -0.568487 4.952708 -6.050045 2.067992 -22.396807 -1.871671 6.665783 27.686825 10.799456 -3.279585 -29.650878 0.000000 0.000000 0.000000 -19.866214 -11.212080 3.783638 -50.791806 -7.551066 -4.962206 -9.387817 -26.578081 3.284624 0.000000 0.000000 0.000000 28.368152 -1.942446 -1.266613 53.826157 9.979428 -3.761040 9.467785 25.575406 3.451925 0.000000 0.000000 0.000000 
0.000205 0.963178 0.000333 -0.345375 -3.198246 1.651697 1.013672 0.317595 3.821064 -1.637044 0.275843 -4.367062 2.094616 7.373227 10.562688 0.000000 0.000000 0.000000 -1.970405 0.042752 0.289176 1.663150 -0.165910 -0.095434 -1.218222 -6.362936 7.871011 0.000000 0.000000 0.000000 6.960615 -0.497634 4.074277 -6.376377 2.151174 -22.171634 -2.001680 6.588330 27.653062 11.272560 -3.432388 -30.437514 0.000000 0.000000 0.000000 -19.070059 -11.279542 3.900602 -51.523013 -8.194972 -4.785766 -8.556044 -26.107834 3.046353 0.000000 0.000000 0.000000 28.293766 -2.106268 -1.486046 55.101713 9.720116 -3.835958 9.186218 26.319988 3.517613 0.000000 0.000000 0.000000 
0.000269 0.962793 0.000495 -0.193267 -3.112844 1.881153 1.011868 0.251969 3.078057 -1.989548 0.284268 -3.320251 2.316260 7.586974 9.841166 0.000000 0.000000 0.000000 -1.687881 0.080894 -0.289407 1.219523 -0.113587 0.218346 -1.308287 -6.565759 7.934663 0.000000 0.000000 0.000000 6.909195 -0.447893 3.544290 -6.396089 2.151026 -22.330930 -1.866822 6.307678 28.095850 9.959388 -2.939667 -29.493980 0.000000 0.000000 0.000000 -19.148010 -11.673992 4.207509 -50.914957 -8.427824 -4.707235 -9.232990 -24.996381 3.062131 0.000000 0.000000 0.000000 28.048806 -1.502519 -1.128840 54.618250 10.099560 -3.706550 9.514704 26.660115 3.636217 0.000000 0.000000 0.000000 
0.000211 0.962915 0.000871 -0.193212 -3.715138 1.750880 0.768697 0.314339 3.636279 -1.812415 0.271865 -3.354389 2.624179 7.962468 9.378727 0.000000 0.000000 0.000000 -1.912799 0.087285 -0.258537 1.717837 -0.160351 0.244945 -1.482614 -6.879299 7.660956 0.000000 0.000000 0.000000 7.073975 -0.457793 3.625699 -6.388781 2.127721 -22.754988 -2.023793 6.621597 28.496779 10.188851 -3.071788 -29.634032 0.000000 0.000000 0.000000 -19.464047 -11.954693 4.403615 -50.950881 -8.166089 -4.857394 -8.597661 -25.247945 2.963487 0.000000 0.000000 0.000000 28.631501 -1.442917 -1.124009 54.047698 10.347239 -3.655587 9.924739 27.011006 3.792441 0.000000 0.000000 0.000000 
0.000078 0.963147 0.001341 -0.301499 -3.879044 1.596565 0.808924 0.325357 3.764949 -1.755076 0.266309 -3.295567 2.648737 8.084739 9.808866 0.000000 0.000000 0.000000 -1.694564 0.076078 -0.212986 1.500187 -0.138932 0.227782 -1.466234 -6.913142 7.811157 0.000000 0.000000 0.000000 6.816555 -0.442520 3.619526 -5.732911 1.971227 -22.150883 -2.177164 6.452045 27.745930 9.839512 -3.091186 -28.410756 0.000000 0.000000 0.000000 -19.651974 -11.669316 4.288213 -51.085102 -7.872314 -4.918706 -8.995325 -25.034614 3.027186 0.000000 0.000000 0.000000 28.492889 -1.103200 -1.017296 53.853413 10.371640 -3.535212 9.812262 27.160197 3.760767 0.000000 0.000000 0.000000 
-0.000076 0.963345 0.001892 -0.281182 -4.221920 1.539010 0.723870 0.342377 3.891125 -1.759819 0.264550 -3.125357 2.808205 8.251452 9.433023 0.000000 0.000000 0.000000 -1.694351 0.072580 -0.159657 1.396866 -0.123293 0.382432 -1.363013 -6.665087 7.626546 0.000000 0.000000 0.000000 6.723000 -0.430699 3.560966 -5.612737 1.931418 -22.255037 -2.235371 6.330268 27.613961 9.661511 -3.090254 -28.107090 0.000000 0.000000 0.000000 -19.756681 -11.559976 4.324429 -51.015512 -7.263853 -5.171213 -9.084179 -25.792894 3.160381 0.000000 0.000000 0.000000 28.376052 -0.720984 -0.899062 53.830173 10.142062 -3.585112 9.790473 27.464970 3.779684 0.000000 0.000000 0.000000 
-0.000183 0.963196 0.002206 -0.401576 -4.435174 1.501555 0.821798 0.344036 3.942343 -1.739210 0.265983 -3.257058 2.916576 8.515266 9.903414 0.000000 0.000000 0.000000 -1.504724 0.058792 -0.069110 1.213732 -0.108527 0.253747 -1.277097 -6.524404 7.672888 0.000000 0.000000 0.000000 6.660673 -0.421047 3.500629 -5.486392 1.894741 -22.210558 -2.201143 6.146445 27.517120 9.612611 -3.110847 -28.093857 0.000000 0.000000 0.000000 -19.859967 -11.014070 4.113274 -51.237492 -6.870347 -5.362231 -9.391310 -26.322909 3.322039 0.000000 0.000000 0.000000 28.020441 -0.738987 -1.025727 54.254061 9.858500 -3.662474 9.852077 27.785881 3.834432 0.000000 0.000000 0.000000 
-0.000189 0.963055 0.002241 -0.396276 -4.383869 1.463900 0.685265 0.337513 3.811198 -1.569025 0.247127 -3.100840 2.917589 8.388777 9.244301 0.000000 0.000000 0.000000 -1.339827 0.059776 -0.152564 1.158751 -0.097536 0.439884 -1.307371 -6.421650 7.236320 0.000000 0.000000 0.000000 6.534221 -0.436722 3.724251 -5.458668 1.885226 -22.451093 -2.212517 5.933622 27.533924 9.673857 -3.203126 -27.916249 0.000000 0.000000 0.000000 -19.683542 -10.808900 4.050906 -51.446663 -6.459792 -5.563658 -9.807590 -27.348087 3.578162 0.000000 0.000000 0.000000 27.589026 -0.867094 -1.154284 54.594836 9.601521 -3.754565 10.401588 27.706264 3.946036 0.000000 0.000000 0.000000 
-0.000167 0.962872 0.002102 -0.390483 -4.255939 1.482772 0.687276 0.335441 3.797008 -1.524677 0.241995 -3.068282 2.917772 8.413645 9.315701 0.000000 0.000000 0.000000 -1.264462 0.063741 -0.232160 1.064856 -0.089272 0.416279 -1.271201 -6.370086 7.325583 0.000000 0.000000 0.000000 6.479638 -0.432967 3.700465 -5.456149 1.886574 -22.463474 -2.281083 5.978945 27.442963 9.747417 -3.211059 -27.967134 0.000000 0.000000 0.000000 -19.478800 -10.495957 3.838386 -51.683845 -6.329546 -5.627480 -10.136824 -27.861655 3.731542 0.000000 0.000000 0.000000 27.561739 -1.248336 -1.359018 54.593791 9.178070 -3.941832 10.595218 27.669984 3.995568 0.000000 0.000000 0.000000 
